# xmcd
#
# Track frame offsets:
#	150
#	16770
#	34043
#	56317
#	77402
#	97077
#	115478
#	131802
#	153834
#	169845
#	178840
#	190082
#	204898
#	218862
#	225420
#	239472
#	248016
#	257838
#	276037
#	301707
#	316039
#	331372
#
# Disc length: 4707 seconds
# Revision: 0
# Processed by: cddbd v1.5.2PL0 Copyright (c) Steve Scherf et al.
# Submitted via: cdrLabel 7.1
#
DISCID=1c126116
DTITLE=ornella vanoni - live al blu note
DYEAR=1900
DGENRE=
TTITLE0=Traccia  1
TTITLE1=Traccia  2
TTITLE2=Traccia  3
TTITLE3=Traccia  4
TTITLE4=Traccia  5
TTITLE5=Traccia  6
TTITLE6=Traccia  7
TTITLE7=Traccia  8
TTITLE8=Traccia  9
TTITLE9=Traccia 10
TTITLE10=Traccia 11
TTITLE11=Traccia 12
TTITLE12=Traccia 13
TTITLE13=Traccia 14
TTITLE14=Traccia 15
TTITLE15=Traccia 16
TTITLE16=Traccia 17
TTITLE17=Traccia 18
TTITLE18=Traccia 19
TTITLE19=Traccia 20
TTITLE20=Traccia 21
TTITLE21=Traccia 22
EXTD=
EXTT0=
EXTT1=
EXTT2=
EXTT3=
EXTT4=
EXTT5=
EXTT6=
EXTT7=
EXTT8=
EXTT9=
EXTT10=
EXTT11=
EXTT12=
EXTT13=
EXTT14=
EXTT15=
EXTT16=
EXTT17=
EXTT18=
EXTT19=
EXTT20=
EXTT21=
PLAYORDER=
